<?xml version="1.0" encoding="utf-8"?>
<!-- Generator: Adobe Illustrator 27.3.1, SVG Export Plug-In . SVG Version: 6.00 Build 0)  -->
<svg version="1.1" xmlns="http://www.w3.org/2000/svg" xmlns:xlink="http://www.w3.org/1999/xlink" x="0px" y="0px"
	 viewBox="0 0 500 170" style="enable-background:new 0 0 500 170;" xml:space="preserve">
<style type="text/css">
	.st0{fill:none;stroke:#020202;stroke-width:0.3226;stroke-miterlimit:10;}
	.st1{fill:url(#SVGID_1_);}
	.st2{fill:url(#SVGID_00000157293898438979211040000005094252072645623203_);}
	.st3{fill:#008156;}
	.st4{fill:#698071;}
	.st5{fill:url(#SVGID_00000049900102756793437940000004238483741494288559_);}
	.st6{fill:#FCFAFB;}
</style>
<g id="Layer_12">
	<path class="st0" d="M90.41,125.76"/>
	<path class="st0" d="M90.41,125.76"/>
	<path class="st0" d="M90.41,125.76"/>
	<path class="st0" d="M90.41,125.76"/>
</g>
<g id="Layer_2">
	<linearGradient id="SVGID_1_" gradientUnits="userSpaceOnUse" x1="8.1866" y1="86.2214" x2="193.1253" y2="86.2214">
		<stop  offset="0" style="stop-color:#315242"/>
		<stop  offset="0.4674" style="stop-color:#00734A"/>
		<stop  offset="0.955" style="stop-color:#46A74F"/>
	</linearGradient>
	<path class="st1" d="M115.63,63.16c0,0,0.14,0.2,0.2,0.13c25.3-24.83,38.64-35.59,46.39-38.85c0.81-0.34,1.48,0.72,0.83,1.31
		c-13.67,12.35-40.58,42.31-40.58,42.31c-0.01,0.25,0.44,0.8,0.76,0.47c20.37-21.03,43.54-31.11,54.81-36.7
		c0.82-0.41,1.55,0.68,0.87,1.29c-9.79,8.81-34.7,29.63-49.29,41.76c-0.76,0.63,0.11,1.79,0.94,1.26
		c36.56-23.6,51.22-27.8,55.72-28.53c0.67-0.11,1.06,0.73,0.55,1.18c-6.9,6.04-40.43,28.92-54.82,38.68
		c-0.67,0.46-0.1,1.49,0.64,1.16c22.06-9.7,53.46-21.63,59.97-21.14c5.9,0.44-41.59,21.62-61.59,31.67
		c-1.02,0.51-0.41,2.05,0.69,1.73c26.68-7.76,50.73-6.1,59.92-5c0.87,0.1,0.94,1.34,0.09,1.56c-31.33,8.02-49.36,12.4-59.42,14.74
		c-0.94,0.22-0.73,1.6,0.23,1.55c32.62-1.83,52.34,5.43,58.45,8.14c0.73,0.32,0.56,1.4-0.23,1.48c-8.94,0.97-41.51,0.77-60.88,0.55
		c-1.89-0.02-2.26,2.65-0.45,3.18c27.08,7.9,43.48,21.62,48.4,26.18c0.57,0.53,0.09,1.48-0.68,1.33
		c-12.47-2.52-68.87-23.22-68.87-23.22l-21.62-6.78c-0.07-0.02-0.13-0.03-0.2-0.04c-8.33-0.49-53.64,29.19-66.13,37.49
		c-0.71,0.47-1.57-0.39-1.08-1.09c10.33-14.58,28.04-25,35.2-28.82c0.76-0.4,0.4-1.56-0.46-1.46c-11.93,1.42-33.09,11.3-40.32,14.81
		c-0.75,0.37-1.46-0.54-0.95-1.2c6.29-8.11,26.13-15.77,35.47-18.67c0.81-0.25,0.5-1.26-0.33-1.13c-12.14,2-34.58,8.17-38.72,9.21
		c-0.58,0.15-1.06-0.49-0.74-1c2.25-3.69,17.48-8.58,22.97-10.98c0.62-0.27,14.54-4.35,12.69-4.64c-6.96-1.13-30.19,1.17-35.17,1.62
		c-0.73,0.07-1.01-0.93-0.36-1.28c17.29-9.14,30.44-7.88,35.2-6.95c0.37,0.07,0.56-0.43,0.23-0.62c-9.46-5.34-29.07-6.89-34.28-7.55
		c-0.71-0.09-0.8-1.07-0.13-1.31c15.29-5.38,27.63-2.45,33.56-0.26c0.81,0.3,1.41-0.75,0.76-1.32c-8.07-7.01-21.1-12.71-26.84-15.03
		c-0.76-0.31-0.59-1.44,0.23-1.5c11.93-0.94,22.34,4.12,27.19,7c0.77,0.46,1.57-0.54,0.97-1.2c-4.87-5.34-17.61-14.81-23.69-19.22
		c-0.7-0.51-0.15-1.61,0.68-1.38c15.38,4.31,25.38,11.95,29.19,15.27c0.59,0.52,1.5-0.06,1.27-0.81
		c-2.68-8.8-15.97-25.88-21.23-32.42c-0.54-0.68,0.25-1.61,1-1.18c8.48,4.89,19.09,17.71,23.97,23.97c0.55,0.7,1.66,0.08,1.34-0.75
		c-3.23-8.64-11.41-26.94-14.91-34.7c-0.35-0.78,0.65-1.48,1.27-0.88c12.03,11.71,18.8,23.18,21.74,28.89
		c0.39,0.77,1.55,0.43,1.47-0.43c-1.24-13.34-5.25-30.22-7.17-37.81c-0.22-0.85,0.93-1.36,1.42-0.62
		c6.49,9.72,11.08,22.9,13.48,30.88c0.27,0.88,1.57,0.65,1.53-0.28c-1.05-23.97,1.6-37.05,2.89-41.85c0.2-0.73,1.23-0.76,1.47-0.04
		c3.08,9.39,4.98,30.03,5.8,40.91c0.07,0.92,1.4,0.96,1.55,0.05c5.08-29.95,13.45-41.72,17.31-45.73c0.56-0.58,1.52-0.04,1.31,0.74
		c-2.32,8.76-6.18,30.19-8.33,42.48c-0.16,0.94,1.17,1.28,1.51,0.4c10.14-26.73,20.61-36.21,25.65-39.41
		c0.72-0.46,1.53,0.4,1.06,1.1c-5.7,8.43-14.38,28.39-19.27,40.1c-0.37,0.89,0.87,1.52,1.39,0.71
		c16.33-25.36,31.14-36.27,37.55-40.15c0.74-0.45,1.56,0.45,1.03,1.14C137.81,30.44,120.09,56.55,115.63,63.16"/>
	
		<linearGradient id="SVGID_00000158022239627125334210000008951007218555970992_" gradientUnits="userSpaceOnUse" x1="8.1866" y1="86.2214" x2="193.1253" y2="86.2214">
		<stop  offset="0" style="stop-color:#315242"/>
		<stop  offset="0.4674" style="stop-color:#00734A"/>
		<stop  offset="0.955" style="stop-color:#46A74F"/>
	</linearGradient>
	<path style="fill:url(#SVGID_00000158022239627125334210000008951007218555970992_);" d="M115.63,63.16c0,0,0.14,0.2,0.2,0.13
		c25.3-24.83,38.64-35.59,46.39-38.85c0.81-0.34,1.48,0.72,0.83,1.31c-13.67,12.35-40.58,42.31-40.58,42.31
		c-0.01,0.25,0.44,0.8,0.76,0.47c20.37-21.03,43.54-31.11,54.81-36.7c0.82-0.41,1.55,0.68,0.87,1.29
		c-9.79,8.81-34.7,29.63-49.29,41.76c-0.76,0.63,0.11,1.79,0.94,1.26c36.56-23.6,51.22-27.8,55.72-28.53
		c0.67-0.11,1.06,0.73,0.55,1.18c-6.9,6.04-40.43,28.92-54.82,38.68c-0.67,0.46-0.1,1.49,0.64,1.16
		c22.06-9.7,53.46-21.63,59.97-21.14c5.9,0.44-41.59,21.62-61.59,31.67c-1.02,0.51-0.41,2.05,0.69,1.73
		c26.68-7.76,50.73-6.1,59.92-5c0.87,0.1,0.94,1.34,0.09,1.56c-31.33,8.02-49.36,12.4-59.42,14.74c-0.94,0.22-0.73,1.6,0.23,1.55
		c32.62-1.83,52.34,5.43,58.45,8.14c0.73,0.32,0.56,1.4-0.23,1.48c-8.94,0.97-41.51,0.77-60.88,0.55c-1.89-0.02-2.26,2.65-0.45,3.18
		c27.08,7.9,43.48,21.62,48.4,26.18c0.57,0.53,0.09,1.48-0.68,1.33c-12.47-2.52-68.87-23.22-68.87-23.22l-21.62-6.78
		c-0.07-0.02-0.13-0.03-0.2-0.04c-8.33-0.49-53.64,29.19-66.13,37.49c-0.71,0.47-1.57-0.39-1.08-1.09
		c10.33-14.58,28.04-25,35.2-28.82c0.76-0.4,0.4-1.56-0.46-1.46c-11.93,1.42-33.09,11.3-40.32,14.81c-0.75,0.37-1.46-0.54-0.95-1.2
		c6.29-8.11,26.13-15.77,35.47-18.67c0.81-0.25,0.5-1.26-0.33-1.13c-12.14,2-34.58,8.17-38.72,9.21c-0.58,0.15-1.06-0.49-0.74-1
		c2.25-3.69,17.48-8.58,22.97-10.98c0.62-0.27,14.54-4.35,12.69-4.64c-6.96-1.13-30.19,1.17-35.17,1.62
		c-0.73,0.07-1.01-0.93-0.36-1.28c17.29-9.14,30.44-7.88,35.2-6.95c0.37,0.07,0.56-0.43,0.23-0.62c-9.46-5.34-29.07-6.89-34.28-7.55
		c-0.71-0.09-0.8-1.07-0.13-1.31c15.29-5.38,27.63-2.45,33.56-0.26c0.81,0.3,1.41-0.75,0.76-1.32c-8.07-7.01-21.1-12.71-26.84-15.03
		c-0.76-0.31-0.59-1.44,0.23-1.5c11.93-0.94,22.34,4.12,27.19,7c0.77,0.46,1.57-0.54,0.97-1.2c-4.87-5.34-17.61-14.81-23.69-19.22
		c-0.7-0.51-0.15-1.61,0.68-1.38c15.38,4.31,25.38,11.95,29.19,15.27c0.59,0.52,1.5-0.06,1.27-0.81
		c-2.68-8.8-15.97-25.88-21.23-32.42c-0.54-0.68,0.25-1.61,1-1.18c8.48,4.89,19.09,17.71,23.97,23.97c0.55,0.7,1.66,0.08,1.34-0.75
		c-3.23-8.64-11.41-26.94-14.91-34.7c-0.35-0.78,0.65-1.48,1.27-0.88c12.03,11.71,18.8,23.18,21.74,28.89
		c0.39,0.77,1.55,0.43,1.47-0.43c-1.24-13.34-5.25-30.22-7.17-37.81c-0.22-0.85,0.93-1.36,1.42-0.62
		c6.49,9.72,11.08,22.9,13.48,30.88c0.27,0.88,1.57,0.65,1.53-0.28c-1.05-23.97,1.6-37.05,2.89-41.85c0.2-0.73,1.23-0.76,1.47-0.04
		c3.08,9.39,4.98,30.03,5.8,40.91c0.07,0.92,1.4,0.96,1.55,0.05c5.08-29.95,13.45-41.72,17.31-45.73c0.56-0.58,1.52-0.04,1.31,0.74
		c-2.32,8.76-6.18,30.19-8.33,42.48c-0.16,0.94,1.17,1.28,1.51,0.4c10.14-26.73,20.61-36.21,25.65-39.41
		c0.72-0.46,1.53,0.4,1.06,1.1c-5.7,8.43-14.38,28.39-19.27,40.1c-0.37,0.89,0.87,1.52,1.39,0.71
		c16.33-25.36,31.14-36.27,37.55-40.15c0.74-0.45,1.56,0.45,1.03,1.14C137.81,30.44,120.09,56.55,115.63,63.16"/>
</g>
<g id="Layer_8">
	<g>
		<g>
			<path class="st3" d="M212.67,45.88c1.02,0,5.69,0.3,9.43,0.3c9,0,17.92-0.22,21.15-0.22c1.78,0,2.38,0.37,2.46,0.9
				c0.08,1.05,0.42,4.33,0.51,5.23c0.17,0.75,0,1.42-0.42,1.42c-0.34,0-0.59-0.52-1.02-1.49c-1.44-2.92-3.31-4.04-6.37-4.26
				c-2.72-0.22-6.37-0.22-14.1-0.22c-0.59,0-1.19,0.97-1.19,1.35c-0.08,2.09-0.25,10.69-0.08,19.28c0,0.6,0.59,0.9,0.76,0.9
				c8.66,0,12.74-0.07,14.1-0.22c1.19-0.15,2.38-0.37,3.65-2.92c0.42-0.75,0.68-1.05,0.93-1.05c0.34,0,0.51,0.37,0.42,1.12
				c-0.08,0.82-0.42,3.06-0.42,4.63c0,1.57,0.25,2.62,0.34,3.59c0,0.97-0.17,1.27-0.59,1.27c-0.34,0-0.68-0.6-1.19-1.64
				c-0.68-1.64-1.53-2.39-2.55-2.62c-1.36-0.22-2.72-0.37-14.69-0.37c-0.17,0-0.85,0.6-0.85,0.97c-0.08,1.35,0.08,13,0.25,16.37
				c0.08,2.84,0.59,3.29,4.5,4.11c0.68,0.15,1.19,0.37,1.19,0.67c0,0.45-0.93,0.52-1.78,0.52c-1.19,0-4.84-0.45-8.32-0.45
				c-3.23,0-5.35,0.3-6.54,0.3c-0.76,0-1.36-0.15-1.36-0.52c0-0.3,0.42-0.52,1.53-0.75c3.23-0.6,3.65-1.2,3.82-3.96
				c0.25-2.47,0.25-11.73,0.25-19.96c0-7.92,0-12.48-0.25-17.04c-0.17-2.69-0.42-3.36-3.48-4.04c-0.76-0.15-1.36-0.37-1.36-0.75
				C211.39,46.03,211.9,45.88,212.67,45.88z"/>
			<path class="st3" d="M308.38,70.17c0,12.03-9.26,19.43-15.8,21.97c-3.48,1.35-7.39,2.24-11.3,2.24
				c-15.37,0-27.94-11.58-27.94-25.26c0-7.47,2.89-14.13,11.04-19.58c4.33-2.99,10.96-4.71,16.48-4.71
				C295.64,44.84,308.38,56.2,308.38,70.17z M266.68,51.56c-4.25,4.48-6.03,11.21-6.03,17.26c0,5.75,2.55,12.18,6.54,16.59
				c5.01,5.83,10.79,7.55,15.54,7.55c3.06,0,6.28-0.82,9.09-2.99c3.99-2.77,9.26-9.27,9.26-19.81c0-6.5-2.46-12.93-7.22-18.09
				c-3.06-3.21-7.64-6.13-14.44-6.13C274.58,45.96,269.31,48.87,266.68,51.56z"/>
			<path class="st3" d="M343.71,46.18c0.42,0.15,0.59,0.6,0.59,0.82c0,2.02,0.25,4.19,0.34,5.01c0.17,0.97-0.08,1.49-0.42,1.49
				s-0.59-0.37-0.76-1.2c-0.68-1.94-1.53-3.44-3.23-4.41c-1.87-1.27-4.67-1.94-6.88-1.94c-3.99,0-9.94,2.99-9.94,9.19
				c0,4.11,2.97,6.8,6.12,8.67c3.23,1.94,5.94,3.66,8.66,5.38c3.23,2.02,8.07,5.38,8.07,11.88c0,8.3-8.92,13.3-17.75,13.3
				c-3.74,0-8.92-0.82-11.55-2.09c-0.93-0.45-1.27-0.97-1.44-2.02c-0.17-1.2-0.85-3.66-0.85-5.46c-0.08-0.82,0.08-1.42,0.42-1.42
				s0.59,0.45,0.93,1.49c1.53,5.61,7.05,8.15,12.48,8.15c6.79,0,11.21-4.78,11.21-9.72c0-5.08-4.08-7.92-10.19-11.51
				c-6.54-3.89-11.72-7.92-11.72-14.35c0-4.11,2.04-7.32,5.44-9.64c2.29-1.57,6.03-2.99,10.96-2.99
				C338.11,44.84,342.27,45.81,343.71,46.18z"/>
			<path class="st3" d="M365.54,92.15c4.08-0.52,4.59-1.72,4.84-5.16c0.59-7.25,0.59-36.92,0.42-37.97c-0.08-0.67-0.34-0.9-0.59-0.9
				c-0.51-0.07-2.46-0.22-6.37-0.22c-3.48,0-5.52,0.15-7.22,0.37c-1.61,0.22-2.72,1.12-3.91,4.04c-0.42,0.9-0.85,1.27-1.19,1.27
				s-0.34-0.6-0.25-1.12c0.42-2.24,1.1-4.41,1.1-6.35c0.08-0.67,0.08-1.05,0.51-1.2c0.17-0.07,0.42,0.07,0.68,0.37
				c0.34,0.37,1.53,0.67,2.72,0.75c1.36,0.07,9.77,0.15,18.51,0.15c6.54,0,14.52,0,16.9-0.15c1.95-0.07,3.31-0.15,4.67-0.75
				c0.34-0.22,0.59-0.3,0.68-0.15c0.08,0.22,0.17,0.37,0.08,0.97c-0.25,0.9-0.25,3.14-0.25,5.68c0,1.12-0.34,1.64-0.68,1.64
				s-0.51-0.67-0.59-1.05c-0.25-1.35-0.93-2.91-1.61-3.51c-0.76-0.6-1.87-0.9-7.81-0.9c-2.63,0-6.88,0-8.24,0.15
				c-0.42,0.08-0.51,0.67-0.51,1.2c0,2.77-0.17,20.18-0.17,23.32c0,4.19,0.25,13.45,0.51,15.77c0.34,2.54,1.19,3.06,4.08,3.81
				c1.02,0.22,1.44,0.37,1.44,0.75c0,0.45-0.59,0.52-1.7,0.52c-1.95,0-4.59-0.45-7.98-0.45c-4.33,0-6.88,0.45-8.24,0.45
				c-1.1,0-1.53-0.3-1.53-0.67C363.84,92.52,364.61,92.3,365.54,92.15z"/>
			<path class="st3" d="M404.52,45.88c2.04,0,4.67,0.3,7.13,0.3c4.5,0,16.05-0.15,19.45-0.15c3.14,0,4.33-0.15,5.18-0.15
				c0.34,0,0.68,0.45,0.85,1.2c0.08,0.82,0.25,3.59,0.59,5.08c0.08,0.45,0,1.12-0.34,1.12c-0.25,0-0.51-0.22-0.93-1.05
				c-1.44-3.14-3.06-4.26-4.59-4.56c-1.95-0.3-13.16-0.3-15.88-0.22c-0.68,0.07-1.02,0.22-1.02,2.91c0,2.47,0,11.96,0,17.12
				c0,0.9,0.25,1.2,0.51,1.2h10.7c3.91,0,4.93-0.15,5.69-0.52c0.59-0.3,1.36-1.2,2.21-2.84c0.25-0.52,0.51-0.82,0.85-0.82
				c0.25,0,0.42,0.37,0.42,0.82c0,0.45-0.34,2.77-0.51,3.96c-0.17,1.35,0.08,3.66,0.17,4.19c0.25,1.05-0.34,1.49-0.51,1.49
				c-0.34,0-0.42-0.37-1.02-1.57c-0.25-0.67-0.85-2.09-2.12-2.39c-1.95-0.37-4.25-0.45-15.71-0.45c-0.59,0-0.68,0.15-0.68,1.42
				c0,3.81,0.25,14.27,0.25,15.69c0,0.82,0.68,2.77,2.21,3.36c1.36,0.52,2.72,0.75,8.41,0.75c7.13,0,8.66-0.15,10.36-1.49
				c0.85-0.75,2.21-2.54,3.06-3.59c0.85-0.97,1.19-1.27,1.53-1.27s0.42,0.52,0.08,1.35c-0.51,1.72-1.44,4.86-1.87,5.68
				c-0.34,0.52-0.76,0.9-1.36,0.9c-9,0-18.6-0.3-25.48-0.3c-2.89,0-7.64,0.37-8.58,0.37c-1.1,0-1.61-0.22-1.61-0.52
				s0.59-0.45,1.53-0.67c2.89-0.37,4.59-1.35,4.67-4.71c0.42-11.88,0.42-20.1,0.42-34.75c0-4.26-1.02-5.16-4.08-5.75
				c-0.85-0.15-1.27-0.37-1.27-0.67C403.25,46.11,403.84,45.88,404.52,45.88z"/>
			<path class="st3" d="M475.95,48.43c3.65,2.32,5.27,5.53,5.27,8.97c0,4.86-2.89,7.1-4.84,8.37c-1.27,1.05-3.57,1.87-4.84,2.32
				c-0.34,0.15-0.25,0.6,0.08,1.35c1.61,2.84,6.45,9.79,9.17,13.3c2.63,3.29,4.42,5.23,6.2,6.8c2.55,2.32,4.76,2.84,6.37,2.91
				c0.59,0,1.1,0.22,1.1,0.45c0,0.15-0.34,0.45-0.93,0.6c-0.76,0.3-2.29,0.37-3.82,0.37c-5.35,0-9.09-2.09-12.49-5.98
				c-3.74-4.33-9.94-13.45-11.63-15.77c-1.1-1.27-1.95-1.94-3.06-2.09c-0.76-0.15-1.78-0.3-3.57-0.22
				c-0.34,0.07-0.68,0.37-0.76,0.75c-0.17,0.9-0.17,9.57-0.08,12.41c0,3.96,0.34,6.43,0.68,7.1c0.25,0.9,0.93,1.72,3.91,2.17
				c0.93,0.15,1.27,0.37,1.27,0.67s-0.68,0.52-1.61,0.52c-1.53,0-4.08-0.37-7.22-0.37c-3.06,0-6.12,0.37-7.73,0.37
				c-0.85,0-1.44-0.15-1.44-0.52c0-0.3,0.51-0.52,1.61-0.67c2.8-0.52,3.65-1.2,3.91-4.26c0.25-4.26,0.42-10.24,0.42-19.58
				c0-10.39-0.34-15.1-0.51-17.64c-0.17-2.09-0.25-3.21-3.82-3.74c-0.76-0.15-1.44-0.3-1.44-0.67c0-0.3,0.51-0.45,1.53-0.45
				c1.19,0,3.65,0.22,6.62,0.22c3.57,0,5.86-0.37,10.28-0.37C469.75,45.73,473.15,46.63,475.95,48.43z M458.71,47.53
				c-0.17,0.07-0.42,0.15-0.51,1.42c-0.08,1.42-0.17,17.04-0.17,18.31c0,0.97,0.34,1.27,0.68,1.27c0.42,0.15,1.44,0.15,2.04,0.15
				c2.21-0.07,7.13-0.6,9-1.64c2.38-1.49,4.76-4.41,4.76-8.45c0-3.81-1.19-6.65-3.4-8.59c-2.46-2.09-5.44-2.99-9.68-2.99
				C460.32,47.01,459.13,47.23,458.71,47.53z"/>
		</g>
	</g>
	<g>
		<path class="st4" d="M208.03,136.7c3.42-0.25,4.26-1.5,5.3-5.55c1.46-5.55,2.8-10.64,4.26-16.28c1.04-4.17,0.79-5.3-2.5-5.55
			l0.25-0.83h9.6c5.55,0,8.68,1.96,8.68,5.72c0,4.34-3.59,6.97-8.18,7.89l-0.04,0.12c4.55,0.79,6.43,3.46,6.43,6.39
			c0,6.43-6.13,8.93-12.85,8.93h-11.14L208.03,136.7z M227.1,128.35c0-4.09-3.05-5.43-7.39-5.47c0,0-1.75,6.55-2.38,9.22
			c-0.83,3.21-0.38,4.3,2.38,4.26C223.56,136.32,227.1,133.52,227.1,128.35z M229.19,114.33c0-2.75-1.59-4.8-5.93-4.8
			c-0.29,0.92-0.92,3.13-1.38,4.84c-0.71,2.8-1.21,4.72-1.92,7.47C225.23,122.09,229.19,119.5,229.19,114.33z"/>
		<path class="st4" d="M239.16,138.07c-3.09-0.04-5.13-2.38-5.09-6.43c-0.04-1.75,0.38-3.8,1.13-5.68c1.84-4.67,5.34-7.43,8.93-7.43
			c3.34,0,4.8,2.88,4.8,6.43c0,1.59-0.33,3.34-0.92,4.88C246.34,134.65,242.54,138.07,239.16,138.07z M239.04,137.03
			c2.21,0,4.34-4.59,5.47-8.26c0.67-2.21,1.21-4.72,1.25-6.72c0.04-1.46-0.46-2.55-1.59-2.55c-1.96,0-4.01,3.71-5.22,7.18
			c-0.92,2.67-1.59,5.63-1.59,7.64C237.37,136.03,237.87,137.03,239.04,137.03z"/>
		<path class="st4" d="M251.14,133.36c1.38-4.42,2.55-8.22,3.76-11.98l-2.8-0.5l0.25-0.71l3.05-0.54c0.58-1.54,1.17-3.46,1.75-5.01
			c0.25-0.67,0.54-0.92,1.29-1.29c1.08-0.5,2.63-0.96,3.42-1.34l0.29,0.63c-0.83,0.5-1.29,1.54-1.67,2.5
			c-0.46,1.25-1.04,3.21-1.46,4.51l4.92,0.38l-0.25,0.79l-5.26,0.58c-1.88,5.8-3.55,11.35-4.05,13.98c3.96,0.08,5.05-3.46,5.05-5.84
			l0.63-0.12c0.5,4.38-1.63,8.6-6.59,8.6C250.89,137.99,250.01,137.07,251.14,133.36z"/>
		<path class="st4" d="M261.91,135.36c-0.08-1.46,1.34-6.68,4.26-11.31c1.96-3.09,4.97-5.47,7.76-5.47c1.25,0,2.42,0.63,3.09,1.08
			l0.5-1.17l1.08,0.08c1.04,0.83,1.25,2.5,0.71,4.34c-1.21,3.67-1.63,4.88-2.63,8.18c-0.5,1.59-0.92,3.05-1.13,4.09
			c3.46,0.08,4.01-4.34,4.13-5.76l0.58-0.12c0.33,4.72-2.21,8.64-6.68,8.6c-2.25-0.04-2.42-1.08-1.17-4.72
			c1.13-3.34,2.3-6.18,3.17-8.97l-0.17-0.08c-1.75,3.25-4.8,8.35-7.39,11.35c-1,1.13-2.29,2.46-3.46,2.46
			C263.45,137.95,261.99,136.7,261.91,135.36z M269,132.23c2-2.5,5.13-6.93,6.76-10.35c-0.46-0.67-1.59-1.92-2.92-1.92
			c-1.42,0-2.84,1.92-4.09,4.42c-1.34,2.8-2.42,6.09-2.88,8.22c-0.46,2.04-0.08,2.17,0.33,2.29
			C266.79,134.74,267.83,133.69,269,132.23z"/>
		<path class="st4" d="M284.02,137.87c-0.54-0.13-1.59-1.42-0.58-4.51c1.63-5.05,3.3-10.06,3.67-12.19
			c-2.46-0.08-3.76,3.51-3.67,5.51l-0.71,0.17c-0.08-5.13,2.5-8.22,6.3-8.22c0.79,0,1.67,0.08,2.55,0.38l-4.72,13.69l0.17,0.08
			c2.71-5.8,8.05-14.19,11.02-14.19c1.17,0,2.59,1.63,2.59,2.55c0.04,1.34-2.29,7.22-3.21,10.06c-0.46,1.5-0.88,3.05-1.08,4.01
			c3.55,0.08,3.96-4.26,4.09-5.59l0.58-0.12c0.29,4.67-2,8.43-6.47,8.43c-2.21,0-2.67-1-1.34-4.67c1.25-3.55,2.5-6.59,3.63-10.64
			c0.25-0.92,0.04-0.96-0.21-1.17c-0.5,0.04-1.38,0.83-1.88,1.34c-3.13,3.21-7.64,10.56-9.51,15.27L284.02,137.87z"/>
		<path class="st4" d="M304.68,133.36c0.71-2.13,1.84-4.88,2.75-7.51c0.63-1.79,1.17-3.42,1.42-4.67c-2-0.25-4.21,2-4.42,5.55
			l-0.63,0.12c-0.21-4.59,2.67-8.3,6.55-8.3c2.34,0,2.67,1.42,1.75,3.96c-1.04,2.84-2.21,5.97-3.17,8.76c-0.46,1.5-0.79,2.92-1,4.05
			c2.88,0.08,4.38-2.59,4.46-5.72l0.58-0.12c0.5,4.38-1.75,8.56-6.26,8.56C304.09,138.03,303.51,136.7,304.68,133.36z M309.06,112.2
			c0.08-1.46,2-1.92,2.96-2.5c0.67,0.96,2.21,2.17,2.13,3.17c-0.21,1.38-2.13,1.79-2.71,2.3
			C310.23,114.29,309.02,113.12,309.06,112.2z"/>
		<path class="st4" d="M315.11,133.78c-0.08-3.05,1.59-9.01,5.3-12.48c1.84-1.71,4.01-2.75,5.8-2.75c1.84,0.04,3.34,1.29,3.09,3.8
			c-0.17,2-1.88,2.46-2.67,2.46l-0.42-0.33c0.29-1.96,0.08-4.51-1.34-4.55c-1.88-0.04-3.55,3.09-4.88,6.97
			c-0.75,2.09-1.13,4.22-1.13,5.63c0,2.04,0.83,3,2.25,3c2.59,0,4.05-2.34,5.05-5.55l0.63-0.04c-0.71,4.92-3.05,8.01-7.05,8.05
			C316.99,137.99,315.24,136.61,315.11,133.78z"/>
		<path class="st4" d="M328.71,135.36c-0.08-1.46,1.34-6.68,4.26-11.31c1.96-3.09,4.97-5.47,7.76-5.47c1.25,0,2.42,0.63,3.09,1.08
			l0.5-1.17l1.08,0.08c1.04,0.83,1.25,2.5,0.71,4.34c-1.21,3.67-1.63,4.88-2.63,8.18c-0.5,1.59-0.92,3.05-1.13,4.09
			c3.46,0.08,4.01-4.34,4.13-5.76l0.58-0.12c0.33,4.72-2.21,8.64-6.68,8.6c-2.25-0.04-2.42-1.08-1.17-4.72
			c1.13-3.34,2.3-6.18,3.17-8.97l-0.17-0.08c-1.75,3.25-4.8,8.35-7.39,11.35c-1,1.13-2.29,2.46-3.46,2.46
			C330.26,137.95,328.8,136.7,328.71,135.36z M335.81,132.23c2-2.5,5.13-6.93,6.76-10.35c-0.46-0.67-1.59-1.92-2.92-1.92
			c-1.42,0-2.84,1.92-4.09,4.42c-1.34,2.8-2.42,6.09-2.88,8.22c-0.46,2.04-0.08,2.17,0.33,2.29
			C333.6,134.74,334.64,133.69,335.81,132.23z"/>
		<path class="st4" d="M349.5,133.32c1.75-5.26,6.01-18.15,7.18-23.79c-1.04-0.12-2.38,0.21-3.34,0.79l-0.21-0.38
			c0.63-0.83,3.17-3,6.18-3c0.71,0,2.13,0.04,1.42,2.38c-2.63,8.22-7.51,22.79-7.97,26.04c4.3,0.08,4.38-4.76,4.47-5.76l0.58-0.12
			c0.5,4.13-1.13,8.51-6.34,8.51C348.87,137.99,348.29,137.03,349.5,133.32z"/>
		<path class="st4" d="M369.44,127.31c0.04-9.97,6.38-19.32,16.32-19.32c2.29,0,5.3,0.67,7.18,1.92c0.5,1.13,0.04,3.09-0.42,4.67
			l-0.79,3.09h-0.96c0.5-4.55-0.75-8.35-4.97-8.47c-7.01-0.21-11.85,10.93-11.89,19.95c0,4.76,2.13,7.51,5.76,7.6
			c2.25,0.13,3.71-0.63,4.63-1.29c0.58-1.67,1.34-4.55,1.79-6.34c0.88-3.42-0.04-4.01-3.09-4.3l0.21-0.83
			c1.79,0.08,3.51,0.17,5.84,0.17c1.63,0,2.88-0.04,4.76-0.17l-0.21,0.83c-2.17,0.25-2.71,1.38-3.55,4.17
			c-0.17,0.42-0.75,2.67-0.88,3.25c-0.38,1.38-0.75,3.05-0.79,3.84c-2.59,1.29-5.93,2-8.89,1.96
			C373.87,137.95,369.4,134.32,369.44,127.31z"/>
		<path class="st4" d="M392.89,135.36c-0.08-1.46,1.34-6.68,4.26-11.31c1.96-3.09,4.97-5.47,7.76-5.47c1.25,0,2.42,0.63,3.09,1.08
			l0.5-1.17l1.08,0.08c1.04,0.83,1.25,2.5,0.71,4.34c-1.21,3.67-1.63,4.88-2.63,8.18c-0.5,1.59-0.92,3.05-1.13,4.09
			c3.46,0.08,4.01-4.34,4.13-5.76l0.58-0.12c0.33,4.72-2.21,8.64-6.68,8.6c-2.25-0.04-2.42-1.08-1.17-4.72
			c1.13-3.34,2.3-6.18,3.17-8.97l-0.17-0.08c-1.75,3.25-4.8,8.35-7.39,11.35c-1,1.13-2.29,2.46-3.46,2.46
			C394.44,137.95,392.98,136.7,392.89,135.36z M399.99,132.23c2-2.5,5.13-6.93,6.76-10.35c-0.46-0.67-1.59-1.92-2.92-1.92
			c-1.42,0-2.84,1.92-4.09,4.42c-1.34,2.8-2.42,6.09-2.88,8.22c-0.46,2.04-0.08,2.17,0.33,2.29
			C397.78,134.74,398.82,133.69,399.99,132.23z"/>
		<path class="st4" d="M415.01,137.87c-0.54-0.13-1.59-1.42-0.58-4.51c1.63-5.05,3.26-10.06,3.67-12.19
			c-2.46-0.08-3.76,3.51-3.67,5.51l-0.71,0.17c-0.08-5.13,2.42-8.22,6.22-8.22c0.79,0,1.75,0.08,2.63,0.38l-4.72,13.69l0.17,0.08
			c1.67-3.34,4.01-7.47,6.09-10.64c1.46-2.34,2.25-3.09,2.75-3.38c1.42-0.29,3.05,0.38,3.05,2c0.04,1.13-0.54,2-1.34,2.42
			c-0.25-0.25-1.17-0.88-1.92-0.88c-0.54,0.12-1.34,0.83-2.3,2c-2.8,3.34-6.72,10.14-8.14,13.73L415.01,137.87z"/>
		<path class="st4" d="M426.44,135.36c-0.08-1.46,1.34-6.72,4.26-11.31c1.96-3.09,4.97-5.47,7.8-5.47c1.13,0,2.34,0.54,2.96,1
			c0.83-2.34,2.3-7.72,2.71-10.06c-1.08-0.17-2.59,0.29-3.38,0.75l-0.21-0.38c0.63-0.79,3.13-2.92,6.18-2.92
			c0.79,0,2.17,0.04,1.38,2.42c-2.92,8.89-5.47,16.69-6.97,21.7c-0.46,1.59-0.88,3.05-1.04,4.09c3.42,0.08,3.96-4.34,4.09-5.76
			l0.58-0.12c0.33,4.76-2.25,8.64-6.68,8.6c-2.25-0.04-2.42-1.08-1.17-4.72c1.13-3.34,2.3-6.18,3.17-8.97l-0.17-0.08
			c-1.75,3.25-4.8,8.39-7.39,11.35c-1,1.13-2.34,2.46-3.46,2.46S426.53,136.7,426.44,135.36z M433.54,132.23
			c2-2.5,5.13-6.93,6.76-10.35c-0.46-0.67-1.59-1.92-2.92-1.92c-1.42,0-2.84,1.92-4.09,4.42c-1.34,2.8-2.42,6.09-2.88,8.22
			c-0.46,2.04-0.08,2.17,0.33,2.29C431.33,134.74,432.37,133.69,433.54,132.23z"/>
		<path class="st4" d="M447.14,133.69c-0.04-1.42,0.29-3.3,0.92-5.13c-0.46-0.04-1.04-0.04-1.38-0.12l0.21-0.5
			c0.42,0,1.04-0.08,1.42-0.17c0.75-2,2.34-4.67,4.3-6.47c1.79-1.67,4.05-2.75,5.84-2.75c1.75,0,3,2.13,2.92,4.21
			c-0.08,1.17-0.58,2.09-2.5,3.13c-1.67,0.96-4.63,1.92-7.26,2.42c-0.46,1.38-0.67,2.8-0.71,4.01c-0.08,2.09,0.63,3.21,2.21,3.21
			c2.42,0,4.01-2.29,5.01-5.55l0.58-0.04c-0.79,5.09-3.25,8.05-7.09,8.05C448.9,137.99,447.18,136.61,447.14,133.69z M456.12,125.85
			c1.33-0.79,1.88-1.71,1.96-2.75c0.21-1.63-0.38-3.09-1.25-3.09c-1.75,0-4.01,4.01-5.01,7.47
			C453.07,127.18,454.65,126.68,456.12,125.85z"/>
		<path class="st4" d="M463.5,137.87c-0.54-0.13-1.59-1.42-0.58-4.51c1.63-5.05,3.3-10.06,3.67-12.19
			c-2.46-0.08-3.76,3.51-3.67,5.51l-0.71,0.17c-0.08-5.13,2.5-8.22,6.3-8.22c0.79,0,1.67,0.08,2.55,0.38l-4.72,13.69l0.17,0.08
			c2.71-5.8,8.05-14.19,11.02-14.19c1.17,0,2.59,1.63,2.59,2.55c0.04,1.34-2.29,7.22-3.21,10.06c-0.46,1.5-0.88,3.05-1.08,4.01
			c3.55,0.08,3.96-4.26,4.09-5.59l0.58-0.12c0.29,4.67-2,8.43-6.47,8.43c-2.21,0-2.67-1-1.34-4.67c1.25-3.55,2.5-6.59,3.63-10.64
			c0.25-0.92,0.04-0.96-0.21-1.17c-0.5,0.04-1.38,0.83-1.88,1.34c-3.13,3.21-7.64,10.56-9.51,15.27L463.5,137.87z"/>
		<path class="st4" d="M481.11,134.65c0-1.09,0.71-1.88,1.42-2.09l0.71,0.17c0.17,2.55,1.5,4.26,3.17,4.13
			c1.42-0.04,2.17-1.17,2.17-2.59s-0.92-3-1.88-4.84c-1.21-2.21-1.92-3.96-1.96-5.76c0.04-2.84,1.96-5.17,5.68-5.13
			c2.17,0.04,4.09,1.08,4.05,3.05c0,0.88-0.67,1.79-2.04,2c-0.08-1.5-0.71-4.05-2.5-4.05c-1.38,0-2,1.17-1.96,2.34
			c0.08,1.59,1,3.17,1.84,4.72c1.13,2.13,1.92,3.84,1.88,5.59c0,3.26-2.34,5.63-5.72,5.76
			C483.66,138.03,481.15,137.07,481.11,134.65z"/>
	</g>
</g>
<g id="Layer_1">
	
		<linearGradient id="SVGID_00000083057077487781510870000006514856952272605627_" gradientUnits="userSpaceOnUse" x1="8.1858" y1="86.2258" x2="193.1221" y2="86.2258">
		<stop  offset="0" style="stop-color:#315242"/>
		<stop  offset="0.4674" style="stop-color:#00734A"/>
		<stop  offset="0.955" style="stop-color:#46A74F"/>
	</linearGradient>
	<path style="fill:url(#SVGID_00000083057077487781510870000006514856952272605627_);" d="M131.72,100.89
		c26.68-7.77,50.73-6.1,59.92-5.01c0.88,0.1,0.94,1.34,0.09,1.55c-31.33,8.03-49.35,12.4-59.42,14.75c-0.93,0.22-0.72,1.6,0.23,1.55
		c32.62-1.83,52.35,5.43,58.45,8.14c0.74,0.32,0.57,1.39-0.23,1.48c-8.93,0.97-41.51,0.76-60.87,0.55c-1.9-0.03-2.26,2.65-0.44,3.17
		c27.07,7.9,43.48,21.61,48.4,26.18c0.58,0.54,0.09,1.48-0.68,1.33c-12.46-2.52-68.87-23.22-68.87-23.22l-15.84-4.97
		c-0.97,1.6-1.34,3.56-1.56,5.28c-0.65,4.86-0.46,9.81,0.5,14.7c0.48,2.36,1.15,4.71,1.99,6.95c0.35,0.94,0.89,2.03,1.51,3.26
		c0.36,0.72,0.75,1.5,1.15,2.35c0.26,0.54,0.1,1.19-0.36,1.56c-0.25,0.18-0.52,0.28-0.8,0.28c-0.3,0-0.58-0.1-0.81-0.3
		c-13.1-10.61-13.47-28.71-13.23-34.44c-14.97,6.06-49.78,28.86-60.49,35.99c-0.72,0.48-1.57-0.4-1.08-1.1
		c10.33-14.58,28.05-25.01,35.21-28.82c0.76-0.4,0.4-1.56-0.46-1.46c-11.93,1.42-33.08,11.3-40.32,14.81
		c-0.75,0.36-1.46-0.54-0.94-1.2c6.3-8.12,26.13-15.77,35.47-18.67c0.8-0.25,0.5-1.26-0.34-1.12c-12.14,2-34.58,8.17-38.72,9.2
		c-0.58,0.15-1.06-0.48-0.74-0.99c2.25-3.69,17.48-8.58,22.97-10.98c0.62-0.27,14.54-4.35,12.7-4.64
		c-6.95-1.12-30.19,1.17-35.17,1.63c-0.74,0.06-1.01-0.93-0.36-1.28c17.29-9.13,30.44-7.88,35.2-6.95c0.37,0.08,0.55-0.43,0.23-0.61
		c-9.46-5.34-29.07-6.89-34.28-7.56c-0.7-0.09-0.8-1.07-0.13-1.3c15.29-5.38,27.64-2.45,33.57-0.27c0.81,0.31,1.41-0.75,0.75-1.32
		c-8.06-7.01-21.1-12.71-26.84-15.03c-0.76-0.31-0.59-1.43,0.22-1.5c11.93-0.94,22.33,4.12,27.2,6.99c0.77,0.46,1.57-0.53,0.97-1.2
		c-4.86-5.33-17.6-14.8-23.69-19.21c-0.7-0.5-0.15-1.61,0.68-1.38c15.38,4.31,25.38,11.96,29.19,15.28c0.59,0.52,1.5-0.06,1.26-0.81
		c-2.67-8.8-15.96-25.88-21.22-32.42c-0.55-0.67,0.25-1.61,0.99-1.17c8.49,4.88,19.1,17.7,23.97,23.96
		c0.55,0.71,1.66,0.09,1.34-0.75c-3.23-8.63-11.41-26.94-14.92-34.71c-0.35-0.77,0.66-1.47,1.28-0.86
		c12.03,11.7,18.8,23.17,21.73,28.88c0.4,0.77,1.56,0.43,1.47-0.43c-1.24-13.34-5.25-30.23-7.17-37.82
		c-0.21-0.85,0.93-1.35,1.42-0.62c6.49,9.72,11.08,22.89,13.48,30.88c0.27,0.89,1.57,0.65,1.52-0.27
		c-1.05-23.97,1.6-37.06,2.9-41.86c0.19-0.72,1.23-0.76,1.46-0.04c3.08,9.39,4.98,30.02,5.81,40.9c0.06,0.93,1.39,0.97,1.55,0.05
		c5.08-29.95,13.44-41.73,17.3-45.73c0.57-0.58,1.52-0.04,1.32,0.74c-2.32,8.76-6.18,30.19-8.34,42.48
		c-0.15,0.94,1.17,1.29,1.51,0.4c10.14-26.73,20.61-36.2,25.65-39.42c0.72-0.45,1.54,0.4,1.06,1.11
		c-5.7,8.43-14.37,28.39-19.28,40.1c-0.36,0.88,0.88,1.51,1.39,0.71c16.33-25.37,31.15-36.27,37.56-40.15
		c0.74-0.45,1.55,0.45,1.02,1.15c-9.88,12.81-27.6,38.91-32.06,45.52v0.01c0,0,0.14,0.19,0.21,0.13
		c25.3-24.84,38.64-35.59,46.38-38.86c0.81-0.34,1.48,0.72,0.83,1.32c-13.66,12.35-40.58,42.32-40.58,42.32
		c-0.01,0.25,0.44,0.8,0.76,0.46c20.37-21.03,43.55-31.11,54.81-36.69c0.83-0.41,1.55,0.67,0.86,1.29
		c-9.78,8.81-34.69,29.62-49.29,41.75c-0.75,0.63,0.12,1.79,0.94,1.26c36.55-23.61,51.22-27.8,55.73-28.54
		c0.67-0.1,1.06,0.74,0.54,1.19c-6.9,6.04-40.44,28.93-54.81,38.68c-0.67,0.45-0.1,1.48,0.63,1.16
		c22.06-9.7,53.46-21.64,59.97-21.15c5.91,0.44-41.58,21.61-61.58,31.66C130.01,99.67,130.62,101.2,131.72,100.89z"/>
	<path class="st6" d="M107.35,121.26c0-0.11-0.05-0.21-0.06-0.32c-0.13-0.66-0.34-1.28-0.6-1.9c-0.46-1.01-1.02-2.45-2.21-3.08
		c-0.64-0.29-1.28-0.47-1.93-0.63c1.47-1.94,2.48-4.22,2.8-6.66c0.52-4.25-1.68-6.86-4.29-9.24c1.19-0.59,2.34-1.17,3.37-2.07
		c0.96-0.94,1.08-2.49,1.23-3.58c0.07-0.67,0.09-1.33,0.02-1.99c-0.03-0.11,0-0.22-0.04-0.33c1.24,0.34,2.5,1.48,3.23-0.36
		c-0.09-0.54-0.74-0.91-0.98-0.98c-0.88-0.09-1.61,0.77-2.39,1.06c0.12-0.17,0.24-0.34,0.39-0.5c0.27-0.47,1.22-0.64,1.25-1.26
		c0.03-0.29-0.04-0.63-0.4-1.09c-0.48-0.19-1.07,0.19-1.22,0.36c-0.21,0.21-0.25,0.5-0.17,0.84c0.14,0.59,0.04,1.1-0.1,1.63
		c-0.02-0.01-0.03-0.02-0.05-0.03c-0.04-0.01-0.08-0.01-0.12,0c-0.07-0.52-0.15-1.03-0.14-1.59c-0.06-0.69-0.48-1.1-1.21-1.3
		l-0.14,0.06c-0.75,1.29,0.49,2.02,1.22,2.88c-0.58-0.2-1.16-0.41-1.75-0.63c-0.78-0.36-1.58-0.64-2.06,0.44
		c0.01,0.64,0.48,1.03,0.94,1.06c0.85-0.06,1.75-0.36,2.64-0.54c-0.02,0.08-0.02,0.16-0.04,0.24c-0.26,1.2-0.37,3.02-1.05,3.95
		c-0.83,0.61-3.05,0.78-4.25,0.73c-0.5,0.01-0.89,0.15-1.19,0.35c-0.29-0.27-0.58-0.55-0.86-0.83c-2.14-1.85-2.93-4.82-4.11-7.31
		c-2.69-5.11-8.15-6.54-14.38-5.37l-0.23,0.25c-0.47,4.01,0.26,6.7,1.37,8.96c1.14,2.23,2.77,3.93,5.18,4.79
		c2.14,0.81,4.67,1.3,6.57,2.61c-0.45,0.19-0.85,0.6-1.07,1.29c-0.29,1.16-1.08,3.25-1.9,3.87c-1.08,0.39-2.86-0.01-4.09-0.1
		c-0.09,0-0.16-0.02-0.24-0.03c0.42-0.8,0.96-1.58,1.26-2.38c0.1-0.45-0.13-1.01-0.75-1.2c-1.17,0.16-1.12,1-1,1.85
		c0.05,0.62,0.09,1.24,0.12,1.85c-0.61-0.94-0.97-2.34-2.42-1.98l-0.1,0.12c-0.01,0.76,0.26,1.28,0.91,1.53
		c0.53,0.15,1,0.37,1.48,0.58c-0.02,0.04-0.04,0.08-0.03,0.12c0,0.02,0.01,0.03,0.01,0.06c-0.55-0.02-1.07-0.07-1.59-0.37
		c-0.31-0.18-0.59-0.22-0.85-0.08c-0.21,0.1-0.73,0.55-0.69,1.07c0.35,0.47,0.65,0.63,0.94,0.69c0.6,0.15,1.04-0.71,1.56-0.84
		c0.19-0.1,0.39-0.16,0.59-0.23c-0.49,0.67-1.52,1.13-1.69,2c0,0.25,0.17,0.98,0.67,1.22c1.96-0.19,1.23-1.72,1.25-3
		c0.09,0.06,0.21,0.07,0.3,0.13c0.62,0.25,1.26,0.41,1.92,0.54c1.1,0.16,2.61,0.48,3.78-0.18c1.47-0.94,2.48-2.21,3.68-3.45
		c0.23,1.59-0.58,3.39-1.46,4.63c-0.67,0.95-1.55,1.74-2.35,2.57c-1.02,1.08-1.99,2.19-2.91,3.34c-0.15-0.1-0.32-0.19-0.53-0.27
		c-1.7-0.46-3.23-1.07-5-1.13c-1.35,0.03-2.49,1.07-3.35,1.76c-0.51,0.44-0.98,0.91-1.38,1.44c-0.05,0.1-0.15,0.16-0.2,0.26
		c-0.67-1.1-0.81-2.79-2.6-1.95c-0.31,0.46-0.08,1.17,0.04,1.39c0.58,0.66,1.7,0.54,2.47,0.87c-0.2,0.04-0.41,0.09-0.63,0.1
		c-0.52,0.15-1.33-0.37-1.77,0.07c-0.22,0.2-0.4,0.49-0.46,1.07c0.23,0.47,0.91,0.59,1.14,0.57c0.3-0.01,0.52-0.19,0.7-0.5
		c0.3-0.52,0.72-0.83,1.19-1.12c0.01,0.02,0.01,0.03,0.02,0.05c0.02,0.03,0.05,0.06,0.09,0.08c-0.31,0.43-0.6,0.85-0.98,1.25
		c-0.43,0.55-0.41,1.13-0.01,1.78l0.14,0.05c1.43-0.42,1.03-1.81,1.08-2.93c0.28,0.55,0.57,1.1,0.84,1.66
		c0.33,0.8,0.71,1.55,1.8,1.09c0.43-0.48,0.36-1.08,0.04-1.42c-0.67-0.54-1.52-0.94-2.29-1.41c0.07-0.05,0.12-0.11,0.2-0.15
		c1.01-0.7,2.34-1.95,3.47-2.16c1.02,0.12,2.76,1.52,3.6,2.37c0.09,0.08,0.19,0.14,0.28,0.21c-0.24,0.38-0.48,0.75-0.71,1.15
		c-1.14,2.04-1.77,4.4-1.89,6.73c0,0-2.38,22.92,12.63,35.08c-1.36-1.11-2.11-4.12-2.71-5.72c-0.87-2.32-1.55-4.72-2.03-7.15
		c-0.99-4.96-1.19-10.09-0.53-15.11c0.27-2.08,0.71-4.19,1.83-5.96c0.97-1.54,2.4-2.72,3.81-3.88c2.19-1.8,5.69-4.99,8.84-3.86
		c0.92,0.7,1.55,2.41,2.14,3.48c0.05,0.07,0.07,0.15,0.11,0.22c-0.9,0.08-1.85,0.06-2.68,0.24c-0.44,0.16-0.77,0.66-0.6,1.28
		c0.77,0.9,1.45,0.4,2.1-0.17c0.49-0.38,0.99-0.75,1.49-1.11c-0.45,1.03-1.43,2.09-0.34,3.1l0.15,0.02c0.65-0.4,0.93-0.91,0.79-1.59
		c-0.17-0.53-0.24-1.04-0.32-1.56c0.04-0.01,0.08-0.01,0.12-0.03c0.02-0.02,0.02-0.03,0.04-0.04c0.28,0.47,0.52,0.94,0.56,1.53
		c0.02,0.35,0.14,0.61,0.4,0.76c0.19,0.12,0.86,0.31,1.27,0c0.21-0.55,0.17-0.89,0.06-1.16c-0.2-0.59-1.16-0.48-1.56-0.85
		c-0.19-0.11-0.35-0.24-0.52-0.37c0.83,0.05,1.78,0.66,2.59,0.33c0.2-0.14,0.73-0.68,0.65-1.22
		C109.32,119.13,108.44,120.58,107.35,121.26z"/>
	<path class="st6" d="M107.35,121.26c0-0.11-0.05-0.21-0.06-0.32c-0.13-0.66-0.34-1.28-0.6-1.9c-0.46-1.01-1.02-2.45-2.21-3.08
		c-0.64-0.29-1.28-0.47-1.93-0.63c1.47-1.94,2.48-4.22,2.8-6.66c0.52-4.25-1.68-6.86-4.29-9.24c1.19-0.59,2.34-1.17,3.37-2.07
		c0.96-0.94,1.08-2.49,1.23-3.58c0.07-0.67,0.09-1.33,0.02-1.99c-0.03-0.11,0-0.22-0.04-0.33c1.24,0.34,2.5,1.48,3.23-0.36
		c-0.09-0.54-0.74-0.91-0.98-0.98c-0.88-0.09-1.61,0.77-2.39,1.06c0.12-0.17,0.24-0.34,0.39-0.5c0.27-0.47,1.22-0.64,1.25-1.26
		c0.03-0.29-0.04-0.63-0.4-1.09c-0.48-0.19-1.07,0.19-1.22,0.36c-0.21,0.21-0.25,0.5-0.17,0.84c0.14,0.59,0.04,1.1-0.1,1.63
		c-0.02-0.01-0.03-0.02-0.05-0.03c-0.04-0.01-0.08-0.01-0.12,0c-0.07-0.52-0.15-1.03-0.14-1.59c-0.06-0.69-0.48-1.1-1.21-1.3
		l-0.14,0.06c-0.75,1.29,0.49,2.02,1.22,2.88c-0.58-0.2-1.16-0.41-1.75-0.63c-0.78-0.36-1.58-0.64-2.06,0.44
		c0.01,0.64,0.48,1.03,0.94,1.06c0.85-0.06,1.75-0.36,2.64-0.54c-0.02,0.08-0.02,0.16-0.04,0.24c-0.26,1.2-0.37,3.02-1.05,3.95
		c-0.83,0.61-3.05,0.78-4.25,0.73c-0.5,0.01-0.89,0.15-1.19,0.35c-0.29-0.27-0.58-0.55-0.86-0.83c-2.14-1.85-2.93-4.82-4.11-7.31
		c-2.69-5.11-8.15-6.54-14.38-5.37l-0.23,0.25c-0.47,4.01,0.26,6.7,1.37,8.96c1.14,2.23,2.77,3.93,5.18,4.79
		c2.14,0.81,4.67,1.3,6.57,2.61c-0.45,0.19-0.85,0.6-1.07,1.29c-0.29,1.16-1.08,3.25-1.9,3.87c-1.08,0.39-2.86-0.01-4.09-0.1
		c-0.09,0-0.16-0.02-0.24-0.03c0.42-0.8,0.96-1.58,1.26-2.38c0.1-0.45-0.13-1.01-0.75-1.2c-1.17,0.16-1.12,1-1,1.85
		c0.05,0.62,0.09,1.24,0.12,1.85c-0.61-0.94-0.97-2.34-2.42-1.98l-0.1,0.12c-0.01,0.76,0.26,1.28,0.91,1.53
		c0.53,0.15,1,0.37,1.48,0.58c-0.02,0.04-0.04,0.08-0.03,0.12c0,0.02,0.01,0.03,0.01,0.06c-0.55-0.02-1.07-0.07-1.59-0.37
		c-0.31-0.18-0.59-0.22-0.85-0.08c-0.21,0.1-0.73,0.55-0.69,1.07c0.35,0.47,0.65,0.63,0.94,0.69c0.6,0.15,1.04-0.71,1.56-0.84
		c0.19-0.1,0.39-0.16,0.59-0.23c-0.49,0.67-1.52,1.13-1.69,2c0,0.25,0.17,0.98,0.67,1.22c1.96-0.19,1.23-1.72,1.25-3
		c0.09,0.06,0.21,0.07,0.3,0.13c0.62,0.25,1.26,0.41,1.92,0.54c1.1,0.16,2.61,0.48,3.78-0.18c1.47-0.94,2.48-2.21,3.68-3.45
		c0.23,1.59-0.58,3.39-1.46,4.63c-0.67,0.95-1.55,1.74-2.35,2.57c-1.02,1.08-1.99,2.19-2.91,3.34c-0.15-0.1-0.32-0.19-0.53-0.27
		c-1.7-0.46-3.23-1.07-5-1.13c-1.35,0.03-2.49,1.07-3.35,1.76c-0.51,0.44-0.98,0.91-1.38,1.44c-0.05,0.1-0.15,0.16-0.2,0.26
		c-0.67-1.1-0.81-2.79-2.6-1.95c-0.31,0.46-0.08,1.17,0.04,1.39c0.58,0.66,1.7,0.54,2.47,0.87c-0.2,0.04-0.41,0.09-0.63,0.1
		c-0.52,0.15-1.33-0.37-1.77,0.07c-0.22,0.2-0.4,0.49-0.46,1.07c0.23,0.47,0.91,0.59,1.14,0.57c0.3-0.01,0.52-0.19,0.7-0.5
		c0.3-0.52,0.72-0.83,1.19-1.12c0.01,0.02,0.01,0.03,0.02,0.05c0.02,0.03,0.05,0.06,0.09,0.08c-0.31,0.43-0.6,0.85-0.98,1.25
		c-0.43,0.55-0.41,1.13-0.01,1.78l0.14,0.05c1.43-0.42,1.03-1.81,1.08-2.93c0.28,0.55,0.57,1.1,0.84,1.66
		c0.33,0.8,0.71,1.55,1.8,1.09c0.43-0.48,0.36-1.08,0.04-1.42c-0.67-0.54-1.52-0.94-2.29-1.41c0.07-0.05,0.12-0.11,0.2-0.15
		c1.01-0.7,2.34-1.95,3.47-2.16c1.02,0.12,2.76,1.52,3.6,2.37c0.09,0.08,0.19,0.14,0.28,0.21c-0.24,0.38-0.48,0.75-0.71,1.15
		c-1.14,2.04-1.77,4.4-1.89,6.73c0,0-2.38,22.92,12.63,35.08c-1.36-1.11-2.11-4.12-2.71-5.72c-0.87-2.32-1.55-4.72-2.03-7.15
		c-0.99-4.96-1.19-10.09-0.53-15.11c0.27-2.08,0.71-4.19,1.83-5.96c0.97-1.54,2.4-2.72,3.81-3.88c2.19-1.8,5.69-4.99,8.84-3.86
		c0.92,0.7,1.55,2.41,2.14,3.48c0.05,0.07,0.07,0.15,0.11,0.22c-0.9,0.08-1.85,0.06-2.68,0.24c-0.44,0.16-0.77,0.66-0.6,1.28
		c0.77,0.9,1.45,0.4,2.1-0.17c0.49-0.38,0.99-0.75,1.49-1.11c-0.45,1.03-1.43,2.09-0.34,3.1l0.15,0.02c0.65-0.4,0.93-0.91,0.79-1.59
		c-0.17-0.53-0.24-1.04-0.32-1.56c0.04-0.01,0.08-0.01,0.12-0.03c0.02-0.02,0.02-0.03,0.04-0.04c0.28,0.47,0.52,0.94,0.56,1.53
		c0.02,0.35,0.14,0.61,0.4,0.76c0.19,0.12,0.86,0.31,1.27,0c0.21-0.55,0.17-0.89,0.06-1.16c-0.2-0.59-1.16-0.48-1.56-0.85
		c-0.19-0.11-0.35-0.24-0.52-0.37c0.83,0.05,1.78,0.66,2.59,0.33c0.2-0.14,0.73-0.68,0.65-1.22
		C109.32,119.13,108.44,120.58,107.35,121.26z"/>
</g>
</svg>
